{"title":"Lara Croft Tomb Raider: The Cradle of Life*2003*[BluRay][1080p][","uid":5871579,"size":4191396229,"categoryP":"video","categoryS":"hd___movies","magnet":"?xt=urn:btih:7e4c5381c6e8534eb06e25f293749e61610816fd&amp;dn=Lara+Croft+Tomb+Raider%3A+The+Cradle+of+Life%2A2003%2A%5BBluRay%5D%5B1080p%5D%5B&amp;tr=udp%3A%2F%2Ftracker.openbittorrent.com%3A80&amp;tr=udp%3A%2F%2Fopen.demonii.com%3A1337&amp;tr=udp%3A%2F%2Ftracker.coppersurfer.tk%3A6969&amp;tr=udp%3A%2F%2Fexodus.desync.com%3A6969","seeders":2,"leechers":0,"uploader":"albedo040","files":1,"time":1286473134,"description":"Lara Croft Tomb Raider: The Cradle of Life*2003*[BluRay][1080p][ENG, POL]\n\nGeneral information:\nCountry: USA, Germany, Japan, UK\nRelease: 21 July 2003\nGenre: Action, Adventure, Fantasy, Thriller\nDirector: Jan de Bont\nScreenplay: Dean Georgaris\nOriginal Music: Alan Silvestri\nCinematography by: David Tattersall\nDuration: 1h 57mn\nLanguage: English, Polish\nNo Subtitles \nRating: 6.5/10 - 13270 vo\n\nCast:\nAngelina Jolie  ...  Lara Croft  \nGerard Butler  ...  Terry Sheridan  \nCiarÃƒÂ¡n Hinds  ...  Jonathan Reiss  \nChris Barrie  ...  Hillary (as Christopher Barrie)  \nNoah Taylor  ...  Bryce  \nDjimon Hounsou  ...  Kosa  \nTil Schweiger  ...  Sean  \nSimon Yam  ...  Chen Lo  \nTerence Yin  ...  Xien  \nDaniel Caltagirone  ...  Nicholas Petraki  \nFabiano Martell  ...  Jimmy Petraki  \nJonathan Coyne  ...  Gus Petraki  \nRobert Cavanah  ...  MI6 Agent Stevens  \nRonan Vibert  ...  MI6 Agent Calloway  \nLenny Juma  ...  Village Leader  \n\nPlot:\nLara Croft is on a quest to save Pandoras box.\n\nSpecifications:\nGeneral\nFormat                           : Matroska\nOverall bit rate                 : 4 763 Kbps\n\nVideo\nFormat                           : AVC\nFormat/Info                      : Advanced Video Codec\nFormat profile                   : &lt;a class=&quot;__cf_email__&quot; href=&quot;/cdn-cgi/l/email-protection&quot; data-cfemail=&quot;541c3d333c1418607a64&quot;&gt;[email&amp;#160;protected]&lt;/a&gt;&lt;script cf-hash='f9e31' type=&quot;text/javascript&quot;&gt;\n/* &lt;![CDATA[ */!function(){try{var t=&quot;currentScript&quot;in document?document.currentScript:function(){for(var t=document.getElementsByTagName(&quot;script&quot;),e=t.length;e--;)if(t[e].getAttribute(&quot;cf-hash&quot;))return t[e]}();if(t&amp;&amp;t.previousSibling){var e,r,n,i,c=t.previousSibling,a=c.getAttribute(&quot;data-cfemail&quot;);if(a){for(e=&quot;&quot;,r=parseInt(a.substr(0,2),16),n=2;a.length-n;n+=2)i=parseInt(a.substr(n,2),16)^r,e+=String.fromCharCode(i);e=document.createTextNode(e),c.parentNode.replaceChild(e,c)}}}catch(u){}}();/* ]]&gt; */&lt;/script&gt;\nFormat settings, CABAC           : Yes\nFormat settings, ReFrames        : 3 frames\nMuxing mode                      : Container profile=&lt;a class=&quot;__cf_email__&quot; href=&quot;/cdn-cgi/l/email-protection&quot; data-cfemail=&quot;491c272227263e27097d6779&quot;&gt;[email&amp;#160;protected]&lt;/a&gt;&lt;script cf-hash='f9e31' type=&quot;text/javascript&quot;&gt;\n/* &lt;![CDATA[ */!function(){try{var t=&quot;currentScript&quot;in document?document.currentScript:function(){for(var t=document.getElementsByTagName(&quot;script&quot;),e=t.length;e--;)if(t[e].getAttribute(&quot;cf-hash&quot;))return t[e]}();if(t&amp;&amp;t.previousSibling){var e,r,n,i,c=t.previousSibling,a=c.getAttribute(&quot;data-cfemail&quot;);if(a){for(e=&quot;&quot;,r=parseInt(a.substr(0,2),16),n=2;a.length-n;n+=2)i=parseInt(a.substr(n,2),16)^r,e+=String.fromCharCode(i);e=document.createTextNode(e),c.parentNode.replaceChild(e,c)}}}catch(u){}}();/* ]]&gt; */&lt;/script&gt;\nCodec ID                         : V_MPEG4/ISO/AVC\nBit rate                         : 3 932 Kbps\nWidth                            : 1 920 pixels\nHeight                           : 1 080 pixels\nDisplay aspect ratio             : 16:9\nFrame rate                       : 23.976 fps\n\nAudio 1\nFormat                           : AC-3\nFormat/Info                      : Audio Coding 3\nMode extension                   : CM (complete main)\nCodec ID                         : A_AC3\nBit rate mode                    : Constant\nBit rate                         : 640 Kbps\nChannel(s)                       : 6 channels\nChannel positions                : Front: L C R, Side: L R, LFE\nSampling rate                    : 48.0 KHz\nStream size                      : 537 MiB (13%)\nTitle                            : English_A\n\nAudio 2\nFormat                           : AC-3\nFormat/Info                      : Audio Coding 3\nMode extension                   : CM (complete main)\nCodec ID                         : A_AC3\nBit rate mode                    : Constant\nBit rate                         : 192 Kbps\nChannel(s)                       : 2 channels\nChannel positions                : Front: L R\nSampling rate                    : 48.0 KHz\nStream size                      : 161 MiB (4%)\nTitle                            : Polish_A\nLanguage                         : Polish\n","torrent":{"xt":"urn:btih:7e4c5381c6e8534eb06e25f293749e61610816fd","amp;dn":"Lara+Croft+Tomb+Raider%3A+The+Cradle+of+Life%2A2003%2A%5BBluRay%5D%5B1080p%5D%5B","amp;tr":["udp%3A%2F%2Ftracker.openbittorrent.com%3A80","udp%3A%2F%2Fopen.demonii.com%3A1337","udp%3A%2F%2Ftracker.coppersurfer.tk%3A6969","udp%3A%2F%2Fexodus.desync.com%3A6969"],"infoHash":"7e4c5381c6e8534eb06e25f293749e61610816fd","infoHashBuffer":{"type":"Buffer","data":[126,76,83,129,198,232,83,78,176,110,37,242,147,116,158,97,97,8,22,253]},"announce":[],"urlList":[]}}